<svg width="2560" height="800" viewBox="0 0 2560 800" fill="none" xmlns="http://www.w3.org/2000/svg">
<g clip-path="url(#clip0_219_5277)">
<path d="M1992 95.8975C1243.96 180.72 1483.85 180.37 1089 228.898C858.816 257.188 482 257.397 321 161.397C163 77.8975 146.757 85.4943 -5 49.5197V533.898H3046V-60.2635C2994.82 -103.943 2401 49.5197 1992 95.8975Z" fill="url(#paint0_radial_219_5277)"/>
<path d="M1133 213C553.661 418.463 216.227 155.891 -79 88.5777V618H3939V88.5777C3730.28 47.7032 2838.57 -225.379 2794.86 17.4511C2755.62 235.472 2202.5 56.5 1539.5 120.5C1373 136.572 1229.1 178.916 1133 213Z" fill="url(#paint1_radial_219_5277)"/>
<path d="M1607.17 202.991C1030.51 492.322 228.507 253.611 -137 133.056V754H3078.75L3414 363.421C3188.13 335.109 2183.82 -86.3406 1607.17 202.991Z" fill="url(#paint2_radial_219_5277)"/>
<path d="M3074.94 201.775C1709.45 173.611 1111.25 530.82 -137 135V835H3219L3074.94 201.775Z" fill="url(#paint3_radial_219_5277)"/>
</g>
<rect x="0.5" y="0.5" width="2559" height="799" stroke="black"/>
<defs>
<radialGradient id="paint0_radial_219_5277" cx="0" cy="0" r="1" gradientUnits="userSpaceOnUse" gradientTransform="translate(-1678.58 13.7619) rotate(4.85278) scale(4120.43 7456.03)">
<stop stop-color="#0F478A"/>
<stop offset="1" stop-color="#D126D9"/>
</radialGradient>
<radialGradient id="paint1_radial_219_5277" cx="0" cy="0" r="1" gradientUnits="userSpaceOnUse" gradientTransform="translate(-240.445 310.153) rotate(3.52772) scale(4523.48 13219.1)">
<stop stop-color="#0F478A"/>
<stop offset="1" stop-color="#D126D9"/>
</radialGradient>
<radialGradient id="paint2_radial_219_5277" cx="0" cy="0" r="1" gradientUnits="userSpaceOnUse" gradientTransform="translate(-137.004 25.5464) rotate(12.7636) scale(3297.23 5313.64)">
<stop stop-color="#0F478A"/>
<stop offset="1" stop-color="#D126D9"/>
</radialGradient>
<radialGradient id="paint3_radial_219_5277" cx="0" cy="0" r="1" gradientUnits="userSpaceOnUse" gradientTransform="translate(-3389.46 602.445) rotate(3.40815) scale(5435.46 13191.1)">
<stop stop-color="#0F478A"/>
<stop offset="1" stop-color="#D126D9"/>
</radialGradient>
<clipPath id="clip0_219_5277">
<rect width="2560" height="800" fill="white"/>
</clipPath>
</defs>
</svg>
